<mxfile host="app.diagrams.net" modified="2022-10-10T07:35:52.079Z" agent="5.0 (Macintosh; Intel Mac OS X 10_15_7) AppleWebKit/537.36 (KHTML, like Gecko) Chrome/105.0.0.0 Safari/537.36" etag="NluyCWyq7Ecqck7z2Wvw" version="20.4.0" type="github">
  <diagram id="MJwkfEtgSg1j0Z405Uzi" name="Page-1">
    <mxGraphModel dx="946" dy="613" grid="0" gridSize="10" guides="1" tooltips="1" connect="1" arrows="1" fold="1" page="1" pageScale="1" pageWidth="850" pageHeight="1100" math="0" shadow="0">
      <root>
        <mxCell id="0" />
        <mxCell id="1" parent="0" />
        <mxCell id="4jskNQ4E7oJ_48yyBlz4-1" value="" style="edgeStyle=orthogonalEdgeStyle;startArrow=none;endArrow=none;rounded=1;targetPortConstraint=eastwest;sourcePortConstraint=northsouth;strokeColor=#006658;fontColor=#5C5C5C;" parent="1" target="4jskNQ4E7oJ_48yyBlz4-3" edge="1">
          <mxGeometry relative="1" as="geometry">
            <mxPoint x="416" y="90" as="sourcePoint" />
          </mxGeometry>
        </mxCell>
        <mxCell id="4jskNQ4E7oJ_48yyBlz4-2" value="" style="edgeStyle=orthogonalEdgeStyle;startArrow=none;endArrow=none;rounded=1;targetPortConstraint=eastwest;sourcePortConstraint=northsouth;strokeColor=#006658;fontColor=#5C5C5C;" parent="1" target="4jskNQ4E7oJ_48yyBlz4-4" edge="1">
          <mxGeometry relative="1" as="geometry">
            <mxPoint x="416" y="90" as="sourcePoint" />
          </mxGeometry>
        </mxCell>
        <mxCell id="4jskNQ4E7oJ_48yyBlz4-8" value="" style="edgeStyle=orthogonalEdgeStyle;rounded=1;orthogonalLoop=1;jettySize=auto;html=1;strokeColor=#006658;fontColor=#5C5C5C;" parent="1" source="4jskNQ4E7oJ_48yyBlz4-3" target="4jskNQ4E7oJ_48yyBlz4-7" edge="1">
          <mxGeometry relative="1" as="geometry" />
        </mxCell>
        <mxCell id="4jskNQ4E7oJ_48yyBlz4-3" value="raw data files" style="whiteSpace=wrap;html=1;align=center;verticalAlign=middle;treeFolding=1;treeMoving=1;fillColor=#21C0A5;strokeColor=#006658;fontColor=#5C5C5C;rounded=1;" parent="1" vertex="1">
          <mxGeometry x="286" y="160" width="100" height="60" as="geometry" />
        </mxCell>
        <mxCell id="4jskNQ4E7oJ_48yyBlz4-6" value="" style="edgeStyle=orthogonalEdgeStyle;rounded=1;orthogonalLoop=1;jettySize=auto;html=1;strokeColor=#006658;fontColor=#5C5C5C;" parent="1" source="4jskNQ4E7oJ_48yyBlz4-4" target="4jskNQ4E7oJ_48yyBlz4-5" edge="1">
          <mxGeometry relative="1" as="geometry" />
        </mxCell>
        <mxCell id="4jskNQ4E7oJ_48yyBlz4-4" value="3rd Party data" style="whiteSpace=wrap;html=1;align=center;verticalAlign=middle;treeFolding=1;treeMoving=1;fillColor=#21C0A5;strokeColor=#006658;fontColor=#5C5C5C;rounded=1;" parent="1" vertex="1">
          <mxGeometry x="436" y="160" width="100" height="60" as="geometry" />
        </mxCell>
        <mxCell id="4jskNQ4E7oJ_48yyBlz4-12" value="" style="edgeStyle=orthogonalEdgeStyle;rounded=1;orthogonalLoop=1;jettySize=auto;html=1;entryX=0.5;entryY=0;entryDx=0;entryDy=0;strokeColor=#006658;fontColor=#5C5C5C;" parent="1" source="4jskNQ4E7oJ_48yyBlz4-5" target="4jskNQ4E7oJ_48yyBlz4-14" edge="1">
          <mxGeometry relative="1" as="geometry">
            <mxPoint x="616" y="280" as="targetPoint" />
            <Array as="points">
              <mxPoint x="656" y="230" />
              <mxPoint x="406" y="230" />
              <mxPoint x="406" y="270" />
            </Array>
          </mxGeometry>
        </mxCell>
        <mxCell id="4jskNQ4E7oJ_48yyBlz4-5" value="preprocessor" style="whiteSpace=wrap;html=1;fillColor=#21C0A5;strokeColor=#006658;fontColor=#5C5C5C;rounded=1;" parent="1" vertex="1">
          <mxGeometry x="598" y="160" width="120" height="60" as="geometry" />
        </mxCell>
        <mxCell id="4jskNQ4E7oJ_48yyBlz4-10" value="" style="edgeStyle=orthogonalEdgeStyle;rounded=1;orthogonalLoop=1;jettySize=auto;html=1;entryX=0.5;entryY=0;entryDx=0;entryDy=0;strokeColor=#006658;fontColor=#5C5C5C;" parent="1" edge="1">
          <mxGeometry relative="1" as="geometry">
            <mxPoint x="176" y="220" as="sourcePoint" />
            <mxPoint x="405" y="407" as="targetPoint" />
            <Array as="points">
              <mxPoint x="176" y="230" />
              <mxPoint x="406" y="230" />
              <mxPoint x="406" y="270" />
              <mxPoint x="405" y="270" />
            </Array>
          </mxGeometry>
        </mxCell>
        <mxCell id="4jskNQ4E7oJ_48yyBlz4-7" value="preprocessor" style="whiteSpace=wrap;html=1;fillColor=#21C0A5;strokeColor=#006658;fontColor=#5C5C5C;rounded=1;" parent="1" vertex="1">
          <mxGeometry x="116" y="160" width="120" height="60" as="geometry" />
        </mxCell>
        <mxCell id="4jskNQ4E7oJ_48yyBlz4-9" value="Data Store" style="whiteSpace=wrap;html=1;fillColor=#21C0A5;strokeColor=#006658;fontColor=#5C5C5C;rounded=1;" parent="1" vertex="1">
          <mxGeometry x="228" y="253" width="360" height="60" as="geometry" />
        </mxCell>
        <mxCell id="4jskNQ4E7oJ_48yyBlz4-14" value="Controller" style="whiteSpace=wrap;html=1;fillColor=#21C0A5;strokeColor=#006658;fontColor=#5C5C5C;rounded=1;" parent="1" vertex="1">
          <mxGeometry x="265" y="328" width="280" height="60" as="geometry" />
        </mxCell>
        <mxCell id="4jskNQ4E7oJ_48yyBlz4-16" value="CCR" style="verticalLabelPosition=bottom;verticalAlign=top;html=1;shape=mxgraph.basic.three_corner_round_rect;dx=6;fillColor=#21C0A5;strokeColor=#006658;fontColor=#5C5C5C;rounded=1;" parent="1" vertex="1">
          <mxGeometry x="101" y="578" width="70" height="38" as="geometry" />
        </mxCell>
        <mxCell id="4jskNQ4E7oJ_48yyBlz4-22" value="PLR" style="verticalLabelPosition=bottom;verticalAlign=top;html=1;shape=mxgraph.basic.three_corner_round_rect;dx=6;fillColor=#21C0A5;strokeColor=#006658;fontColor=#5C5C5C;rounded=1;" parent="1" vertex="1">
          <mxGeometry x="721" y="580" width="70" height="38" as="geometry" />
        </mxCell>
        <mxCell id="4jskNQ4E7oJ_48yyBlz4-23" value="BR" style="verticalLabelPosition=bottom;verticalAlign=top;html=1;shape=mxgraph.basic.three_corner_round_rect;dx=6;fillColor=#21C0A5;strokeColor=#006658;fontColor=#5C5C5C;rounded=1;" parent="1" vertex="1">
          <mxGeometry x="16" y="579" width="70" height="38" as="geometry" />
        </mxCell>
        <mxCell id="4jskNQ4E7oJ_48yyBlz4-24" value="SDAR" style="verticalLabelPosition=bottom;verticalAlign=top;html=1;shape=mxgraph.basic.three_corner_round_rect;dx=6;fillColor=#21C0A5;strokeColor=#006658;fontColor=#5C5C5C;rounded=1;" parent="1" vertex="1">
          <mxGeometry x="616" y="580" width="70" height="38" as="geometry" />
        </mxCell>
        <mxCell id="4jskNQ4E7oJ_48yyBlz4-25" value="PAR" style="verticalLabelPosition=bottom;verticalAlign=top;html=1;shape=mxgraph.basic.three_corner_round_rect;dx=6;fillColor=#21C0A5;strokeColor=#006658;fontColor=#5C5C5C;rounded=1;" parent="1" vertex="1">
          <mxGeometry x="195" y="579" width="70" height="38" as="geometry" />
        </mxCell>
        <mxCell id="4jskNQ4E7oJ_48yyBlz4-26" value="APR" style="verticalLabelPosition=bottom;verticalAlign=top;html=1;shape=mxgraph.basic.three_corner_round_rect;dx=6;fillColor=#21C0A5;strokeColor=#006658;fontColor=#5C5C5C;rounded=1;" parent="1" vertex="1">
          <mxGeometry x="296" y="578" width="70" height="38" as="geometry" />
        </mxCell>
        <mxCell id="4jskNQ4E7oJ_48yyBlz4-27" value="ARR" style="verticalLabelPosition=bottom;verticalAlign=top;html=1;shape=mxgraph.basic.three_corner_round_rect;dx=6;fillColor=#21C0A5;strokeColor=#006658;fontColor=#5C5C5C;rounded=1;" parent="1" vertex="1">
          <mxGeometry x="396" y="578" width="70" height="38" as="geometry" />
        </mxCell>
        <mxCell id="4jskNQ4E7oJ_48yyBlz4-28" value="FAR" style="verticalLabelPosition=bottom;verticalAlign=top;html=1;shape=mxgraph.basic.three_corner_round_rect;dx=6;fillColor=#21C0A5;strokeColor=#006658;fontColor=#5C5C5C;rounded=1;" parent="1" vertex="1">
          <mxGeometry x="483" y="576" width="70" height="38" as="geometry" />
        </mxCell>
        <mxCell id="4jskNQ4E7oJ_48yyBlz4-31" value="" style="verticalLabelPosition=bottom;verticalAlign=top;html=1;shape=mxgraph.basic.patternFillRect;fillStyle=grid;step=5;fillStrokeWidth=0.2;fillStrokeColor=#dddddd;fillColor=#21C0A5;strokeColor=#006658;rounded=1;fontColor=#5C5C5C;gradientColor=none;" parent="1" vertex="1">
          <mxGeometry x="321" y="103" width="190" height="40" as="geometry" />
        </mxCell>
        <mxCell id="4jskNQ4E7oJ_48yyBlz4-32" value="Interface" style="text;html=1;strokeColor=none;fillColor=#21C0A5;align=center;verticalAlign=middle;whiteSpace=wrap;rounded=1;fontColor=#5C5C5C;" parent="1" vertex="1">
          <mxGeometry x="376" y="108" width="90" height="30" as="geometry" />
        </mxCell>
        <mxCell id="4jskNQ4E7oJ_48yyBlz4-33" value="" style="verticalLabelPosition=bottom;verticalAlign=top;html=1;shape=mxgraph.basic.patternFillRect;fillStyle=hor;step=5;fillStrokeWidth=0.2;fillStrokeColor=#dddddd;fillColor=#21C0A5;strokeColor=#006658;fontColor=#5C5C5C;rounded=1;" parent="1" vertex="1">
          <mxGeometry x="354" y="16" width="120" height="40" as="geometry" />
        </mxCell>
        <mxCell id="4jskNQ4E7oJ_48yyBlz4-34" value="" style="endArrow=classic;startArrow=classic;html=1;rounded=1;exitX=0.5;exitY=0;exitDx=0;exitDy=0;exitPerimeter=0;strokeColor=#006658;fontColor=#5C5C5C;" parent="1" source="4jskNQ4E7oJ_48yyBlz4-31" target="4jskNQ4E7oJ_48yyBlz4-33" edge="1">
          <mxGeometry width="50" height="50" relative="1" as="geometry">
            <mxPoint x="476" y="40" as="sourcePoint" />
            <mxPoint x="526" y="-10" as="targetPoint" />
          </mxGeometry>
        </mxCell>
        <mxCell id="4jskNQ4E7oJ_48yyBlz4-35" value="client" style="text;html=1;strokeColor=none;fillColor=#21C0A5;align=center;verticalAlign=middle;whiteSpace=wrap;rounded=1;fontColor=#5C5C5C;" parent="1" vertex="1">
          <mxGeometry x="369" y="21" width="90" height="30" as="geometry" />
        </mxCell>
        <mxCell id="4jskNQ4E7oJ_48yyBlz4-40" value="" style="endArrow=classic;html=1;rounded=1;entryX=0.5;entryY=0;entryDx=0;entryDy=0;entryPerimeter=0;exitX=0.5;exitY=1;exitDx=0;exitDy=0;strokeColor=#006658;fontColor=#5C5C5C;" parent="1" source="4jskNQ4E7oJ_48yyBlz4-14" target="4jskNQ4E7oJ_48yyBlz4-27" edge="1">
          <mxGeometry width="50" height="50" relative="1" as="geometry">
            <mxPoint x="406" y="500" as="sourcePoint" />
            <mxPoint x="436" y="578" as="targetPoint" />
            <Array as="points">
              <mxPoint x="406" y="540" />
              <mxPoint x="431" y="540" />
            </Array>
          </mxGeometry>
        </mxCell>
        <mxCell id="4jskNQ4E7oJ_48yyBlz4-45" value="" style="endArrow=classic;html=1;rounded=1;exitX=0.5;exitY=1;exitDx=0;exitDy=0;entryX=0.5;entryY=0;entryDx=0;entryDy=0;entryPerimeter=0;strokeColor=#006658;fontColor=#5C5C5C;" parent="1" source="4jskNQ4E7oJ_48yyBlz4-14" target="4jskNQ4E7oJ_48yyBlz4-26" edge="1">
          <mxGeometry width="50" height="50" relative="1" as="geometry">
            <mxPoint x="306" y="431" as="sourcePoint" />
            <mxPoint x="332" y="570" as="targetPoint" />
            <Array as="points">
              <mxPoint x="405" y="540" />
              <mxPoint x="332" y="541" />
            </Array>
          </mxGeometry>
        </mxCell>
        <mxCell id="4jskNQ4E7oJ_48yyBlz4-46" value="" style="endArrow=classic;html=1;rounded=1;entryX=0.5;entryY=0;entryDx=0;entryDy=0;entryPerimeter=0;exitX=0.5;exitY=1;exitDx=0;exitDy=0;strokeColor=#006658;fontColor=#5C5C5C;" parent="1" source="4jskNQ4E7oJ_48yyBlz4-14" target="4jskNQ4E7oJ_48yyBlz4-25" edge="1">
          <mxGeometry width="50" height="50" relative="1" as="geometry">
            <mxPoint x="226" y="540" as="sourcePoint" />
            <mxPoint x="276" y="490" as="targetPoint" />
            <Array as="points">
              <mxPoint x="406" y="540" />
              <mxPoint x="230" y="540" />
            </Array>
          </mxGeometry>
        </mxCell>
        <mxCell id="4jskNQ4E7oJ_48yyBlz4-47" value="" style="endArrow=classic;html=1;rounded=1;entryX=0.414;entryY=-0.079;entryDx=0;entryDy=0;entryPerimeter=0;exitX=0.5;exitY=1;exitDx=0;exitDy=0;strokeColor=#006658;fontColor=#5C5C5C;" parent="1" source="4jskNQ4E7oJ_48yyBlz4-14" target="4jskNQ4E7oJ_48yyBlz4-28" edge="1">
          <mxGeometry width="50" height="50" relative="1" as="geometry">
            <mxPoint x="486" y="430" as="sourcePoint" />
            <mxPoint x="512" y="578" as="targetPoint" />
            <Array as="points">
              <mxPoint x="405" y="500" />
              <mxPoint x="406" y="540" />
              <mxPoint x="487" y="540" />
              <mxPoint x="512" y="540" />
            </Array>
          </mxGeometry>
        </mxCell>
        <mxCell id="4jskNQ4E7oJ_48yyBlz4-49" value="" style="endArrow=classic;html=1;rounded=1;entryX=0.5;entryY=0;entryDx=0;entryDy=0;entryPerimeter=0;exitX=0.5;exitY=1;exitDx=0;exitDy=0;strokeColor=#006658;fontColor=#5C5C5C;" parent="1" source="4jskNQ4E7oJ_48yyBlz4-14" target="4jskNQ4E7oJ_48yyBlz4-24" edge="1">
          <mxGeometry width="50" height="50" relative="1" as="geometry">
            <mxPoint x="456" y="460" as="sourcePoint" />
            <mxPoint x="642.98" y="572.998" as="targetPoint" />
            <Array as="points">
              <mxPoint x="406" y="540" />
              <mxPoint x="618" y="540" />
              <mxPoint x="651" y="540" />
            </Array>
          </mxGeometry>
        </mxCell>
        <mxCell id="4jskNQ4E7oJ_48yyBlz4-50" value="" style="endArrow=classic;html=1;rounded=1;entryX=0.5;entryY=0;entryDx=0;entryDy=0;entryPerimeter=0;exitX=0.5;exitY=1;exitDx=0;exitDy=0;strokeColor=#006658;fontColor=#5C5C5C;" parent="1" source="4jskNQ4E7oJ_48yyBlz4-14" target="4jskNQ4E7oJ_48yyBlz4-22" edge="1">
          <mxGeometry width="50" height="50" relative="1" as="geometry">
            <mxPoint x="416" y="440" as="sourcePoint" />
            <mxPoint x="755" y="570" as="targetPoint" />
            <Array as="points">
              <mxPoint x="406" y="540" />
              <mxPoint x="756" y="540" />
            </Array>
          </mxGeometry>
        </mxCell>
        <mxCell id="4jskNQ4E7oJ_48yyBlz4-51" value="" style="endArrow=classic;html=1;rounded=1;exitX=0.5;exitY=1;exitDx=0;exitDy=0;entryX=0.5;entryY=0;entryDx=0;entryDy=0;entryPerimeter=0;strokeColor=#006658;fontColor=#5C5C5C;" parent="1" source="4jskNQ4E7oJ_48yyBlz4-14" target="4jskNQ4E7oJ_48yyBlz4-16" edge="1">
          <mxGeometry width="50" height="50" relative="1" as="geometry">
            <mxPoint x="311" y="427" as="sourcePoint" />
            <mxPoint x="136" y="570" as="targetPoint" />
            <Array as="points">
              <mxPoint x="406" y="540" />
              <mxPoint x="136" y="540" />
            </Array>
          </mxGeometry>
        </mxCell>
        <mxCell id="4jskNQ4E7oJ_48yyBlz4-52" value="" style="endArrow=classic;html=1;rounded=1;exitX=0.5;exitY=1;exitDx=0;exitDy=0;entryX=0.5;entryY=0;entryDx=0;entryDy=0;entryPerimeter=0;strokeColor=#006658;fontColor=#5C5C5C;" parent="1" source="4jskNQ4E7oJ_48yyBlz4-14" target="4jskNQ4E7oJ_48yyBlz4-23" edge="1">
          <mxGeometry width="50" height="50" relative="1" as="geometry">
            <mxPoint x="310" y="420" as="sourcePoint" />
            <mxPoint x="41" y="570" as="targetPoint" />
            <Array as="points">
              <mxPoint x="406" y="540" />
              <mxPoint x="50" y="540" />
            </Array>
          </mxGeometry>
        </mxCell>
        <mxCell id="FZ6_aIcm-3CUiIcY_52n-1" value="&lt;h1&gt;&lt;font face=&quot;Verdana&quot;&gt;Client&lt;/font&gt;&lt;/h1&gt;&lt;div&gt;user or 3rd party system interacting with the system&lt;/div&gt;" style="text;html=1;strokeColor=#99FFCC;fillColor=#68AD8B;spacing=5;spacingTop=-20;whiteSpace=wrap;overflow=hidden;rounded=1;glass=1;gradientColor=#21C0A5;" parent="1" vertex="1">
          <mxGeometry x="21" y="702" width="792" height="74" as="geometry" />
        </mxCell>
        <mxCell id="FZ6_aIcm-3CUiIcY_52n-2" value="&lt;h1&gt;&lt;font face=&quot;Verdana&quot;&gt;Interface&lt;/font&gt;&lt;/h1&gt;&lt;div&gt;&lt;font face=&quot;Verdana&quot;&gt;point of interaction between the system and the user, uses input to determine which code to excute&amp;nbsp;&lt;/font&gt;&lt;/div&gt;" style="text;html=1;strokeColor=#99FFCC;fillColor=#68AD8B;spacing=5;spacingTop=-20;whiteSpace=wrap;overflow=hidden;rounded=1;glass=1;gradientColor=#21C0A5;" parent="1" vertex="1">
          <mxGeometry x="21" y="791" width="791" height="74" as="geometry" />
        </mxCell>
        <mxCell id="FZ6_aIcm-3CUiIcY_52n-3" value="&lt;h1&gt;&lt;font face=&quot;Verdana&quot;&gt;Preprocessor&lt;/font&gt;&lt;/h1&gt;&lt;div&gt;&lt;font face=&quot;Verdana&quot;&gt;takes in data in a variety of formats, cleans and structures it into a standardised format&lt;/font&gt;&lt;/div&gt;&lt;div&gt;&lt;font face=&quot;Verdana&quot;&gt;&lt;br&gt;&lt;/font&gt;&lt;/div&gt;&lt;div&gt;&lt;font face=&quot;Verdana&quot;&gt;data formats include:&lt;/font&gt;&lt;/div&gt;&lt;div&gt;&lt;font face=&quot;Verdana&quot;&gt;1. flat files &amp;amp; templates (excel, CSV, JSON)&lt;/font&gt;&lt;/div&gt;&lt;div&gt;&lt;font face=&quot;Verdana&quot;&gt;2. structured data (API endpoints)&lt;/font&gt;&lt;/div&gt;&lt;div&gt;&lt;font face=&quot;Verdana&quot;&gt;3. unstructured data (OCR images)&lt;/font&gt;&lt;/div&gt;" style="text;html=1;strokeColor=#99FFCC;fillColor=#68AD8B;spacing=5;spacingTop=-20;whiteSpace=wrap;overflow=hidden;rounded=1;glass=1;gradientColor=#21C0A5;" parent="1" vertex="1">
          <mxGeometry x="20" y="874" width="796" height="160" as="geometry" />
        </mxCell>
        <mxCell id="FZ6_aIcm-3CUiIcY_52n-4" value="&lt;h1&gt;&lt;font face=&quot;Verdana&quot;&gt;Data Store&lt;/font&gt;&lt;/h1&gt;&lt;div&gt;&lt;font face=&quot;Verdana&quot;&gt;a data storage repository for structured data&lt;/font&gt;&lt;/div&gt;" style="text;html=1;strokeColor=#99FFCC;fillColor=#21C0A5;spacing=5;spacingTop=-20;whiteSpace=wrap;overflow=hidden;rounded=1;glass=1;gradientColor=#21C0A5;" parent="1" vertex="1">
          <mxGeometry x="18" y="1048" width="796" height="74" as="geometry" />
        </mxCell>
        <mxCell id="FZ6_aIcm-3CUiIcY_52n-5" value="" style="rounded=1;whiteSpace=wrap;html=1;strokeColor=#00331A;fillColor=none;" parent="1" vertex="1">
          <mxGeometry x="11" y="510" width="812" height="150" as="geometry" />
        </mxCell>
        <mxCell id="FZ6_aIcm-3CUiIcY_52n-6" value="&lt;h1&gt;&lt;font face=&quot;Verdana&quot;&gt;Controller&lt;/font&gt;&lt;/h1&gt;&lt;div&gt;&lt;font face=&quot;Verdana&quot;&gt;identifies which reconciliation type to perform on the data&lt;/font&gt;&lt;/div&gt;" style="text;html=1;strokeColor=#99FFCC;fillColor=#68AD8B;spacing=5;spacingTop=-20;whiteSpace=wrap;overflow=hidden;rounded=1;glass=1;gradientColor=#21C0A5;" parent="1" vertex="1">
          <mxGeometry x="16" y="1139" width="800" height="74" as="geometry" />
        </mxCell>
        <mxCell id="FZ6_aIcm-3CUiIcY_52n-7" value="&lt;h1&gt;&lt;font face=&quot;Verdana&quot;&gt;Reconciliation Block&lt;br&gt;&lt;/font&gt;&lt;/h1&gt;&lt;div&gt;&lt;font face=&quot;Verdana&quot;&gt;contains the various reconciliation functions that are executed based on the instructions from the controller&lt;/font&gt;&lt;/div&gt;" style="text;html=1;strokeColor=#99FFCC;fillColor=#68AD8B;spacing=5;spacingTop=-20;whiteSpace=wrap;overflow=hidden;rounded=1;glass=1;gradientColor=#21C0A5;" parent="1" vertex="1">
          <mxGeometry x="13" y="1227" width="799" height="74" as="geometry" />
        </mxCell>
        <mxCell id="FZ6_aIcm-3CUiIcY_52n-9" value="&lt;font face=&quot;Verdana&quot;&gt;Reconcilation Block&lt;/font&gt;" style="text;html=1;strokeColor=none;fillColor=#21C0A5;align=center;verticalAlign=middle;whiteSpace=wrap;rounded=1;glass=0;gradientColor=none;" parent="1" vertex="1">
          <mxGeometry x="346" y="664" width="128" height="30" as="geometry" />
        </mxCell>
      </root>
    </mxGraphModel>
  </diagram>
</mxfile>
